<svg id="Capa_1" data-name="Capa 1" xmlns="http://www.w3.org/2000/svg" viewBox="0 0 88.01 104.39"><defs><style>.cls-1{opacity:0.85;}.cls-2{fill:#ffb74a;}.cls-3{fill:#ffc56e;}.cls-4{fill:#de9f40;}.cls-5{fill:#ffdbac;}.cls-6{fill:#ffeed9;}.cls-7{fill:#db0404;}.cls-8{fill:#ff432e;}.cls-9{fill:#e9edf5;}.cls-10{fill:#fff;}</style></defs><g class="cls-1"><path class="cls-2" d="M320,237a44.33,44.33,0,0,0-44,38.54,5.1,5.1,0,0,0,5.07,5.76h77.78a5.11,5.11,0,0,0,5.07-5.76A44.33,44.33,0,0,0,320,237Z" transform="translate(-276 -187.8)"/><path class="cls-3" d="M319.7,237A44.13,44.13,0,0,0,276,275.51a5.15,5.15,0,0,0,1.22,4,5.09,5.09,0,0,0,3.82,1.73H319.7Z" transform="translate(-276 -187.8)"/><path class="cls-4" d="M341.88,242.15a44.91,44.91,0,0,0-41.88,0c4.92,7.2,12.47,11.81,20.94,11.81S337,249.35,341.88,242.15Z" transform="translate(-276 -187.8)"/><path class="cls-5" d="M320,246.07c14.91,0,27-13,27-29.13s-12.09-29.14-27-29.14-27,13-27,29.14S305.09,246.07,320,246.07Z" transform="translate(-276 -187.8)"/><path class="cls-6" d="M319.7,187.8c-14.75,0-26.7,13-26.7,29.14s11.95,29.13,26.7,29.13V187.8Z" transform="translate(-276 -187.8)"/><path class="cls-7" d="M320.63,292.2A20.64,20.64,0,1,0,300,271.56,20.64,20.64,0,0,0,320.63,292.2Z" transform="translate(-276 -187.8)"/><path class="cls-8" d="M300,271.56c0,11.4,9.51,20.64,21.24,20.64V250.92C309.51,250.92,300,260.16,300,271.56Z" transform="translate(-276 -187.8)"/><path class="cls-9" d="M329.2,274.81l-3.29-3.29-5.08-5.08-3.29-3.29a3.59,3.59,0,0,0-5.08,5.08l3.29,3.29,5.08,5.09,3.29,3.28a3.59,3.59,0,0,0,5.08-5.08Z" transform="translate(-276 -187.8)"/><path class="cls-10" d="M318.29,274.06l5.08-5.08-2.54-2.54-3.29-3.29a3.59,3.59,0,0,0-5.08,5.08l3.29,3.29,2.54,2.54Z" transform="translate(-276 -187.8)"/><path class="cls-9" d="M324.22,263l-3.29,3.29-5.09,5.08-3.29,3.29a3.6,3.6,0,0,0,5.09,5.09l3.29-3.3,5.08-5.08,3.29-3.29a3.59,3.59,0,0,0-5.08-5.08Z" transform="translate(-276 -187.8)"/><path class="cls-10" d="M320.93,276.47V266.28l-5.09,5.11-3.29,3.29a3.6,3.6,0,0,0,5.09,5.09Z" transform="translate(-276 -187.8)"/></g></svg>