<svg id="Capa_1" data-name="Capa 1" xmlns="http://www.w3.org/2000/svg" xmlns:xlink="http://www.w3.org/1999/xlink" viewBox="0 0 105 105"><defs><style>.cls-1{fill:none;}.cls-2{clip-path:url(#clip-path);}.cls-3{fill:#cfd8dc;}.cls-4{fill:#fff;}.cls-5{fill:#90a4ae;}.cls-6{fill:#607d8b;}.cls-7{fill:#b4bcc0;}.cls-8{fill:#7d8f97;}.cls-9{fill:#dedede;}.cls-10{fill:#546d79;}.cls-11{fill:#2196f3;}.cls-12{fill:#1d83d4;}</style><clipPath id="clip-path" transform="translate(-267.5 -187.5)"><rect class="cls-1" x="267.5" y="187.5" width="105" height="105"/></clipPath></defs><g class="cls-2"><path class="cls-3" d="M345.68,257.5H290a22.3,22.3,0,0,1-2.4-44.5,33.33,33.33,0,0,1,61.55-8.32,26.51,26.51,0,0,1-3.51,52.82Z" transform="translate(-267.5 -187.5)"/><path class="cls-4" d="M350.62,275H289.38V240h61.24Z" transform="translate(-267.5 -187.5)"/><path class="cls-5" d="M332,292.5H308a3.28,3.28,0,0,1-2.32-5.6c2.37-2.37,3.83-6.73,4.62-9.07l.2-.6a3.27,3.27,0,0,1,3.1-2.23h12.82a3.27,3.27,0,0,1,3.08,2.16l.34,1c.86,2.44,2.28,6.51,4.54,8.77A3.28,3.28,0,0,1,332,292.5Z" transform="translate(-267.5 -187.5)"/><path class="cls-6" d="M347.34,235.62H292.66a7.7,7.7,0,0,0-7.66,7.66v30.63a7.69,7.69,0,0,0,7.66,7.65h54.68a7.69,7.69,0,0,0,7.66-7.65V243.28A7.7,7.7,0,0,0,347.34,235.62Zm1.1,35H291.56V243.28a1.08,1.08,0,0,1,1.1-1.09h54.68a1.08,1.08,0,0,1,1.1,1.09Z" transform="translate(-267.5 -187.5)"/><path class="cls-7" d="M320,187.5A33.26,33.26,0,0,0,287.64,213,22.28,22.28,0,0,0,285,256.94V243.28a7.7,7.7,0,0,1,7.66-7.66H320Z" transform="translate(-267.5 -187.5)"/><path class="cls-8" d="M320,281.56H308.89a16.86,16.86,0,0,1-3.24,5.34,3.28,3.28,0,0,0,2.32,5.6h12Z" transform="translate(-267.5 -187.5)"/><path class="cls-9" d="M320,242.19H292.66a1.08,1.08,0,0,0-1.1,1.09v27.34H320Z" transform="translate(-267.5 -187.5)"/><path class="cls-10" d="M320,235.62H292.66a7.7,7.7,0,0,0-7.66,7.66v30.63a7.69,7.69,0,0,0,7.66,7.65H320V270.62H291.56V243.28a1.08,1.08,0,0,1,1.1-1.09H320Z" transform="translate(-267.5 -187.5)"/><path class="cls-11" d="M330.71,224.17l-7.52-7.43a4.55,4.55,0,0,0-6.38,0l-7.52,7.43a4.44,4.44,0,0,0,3.19,7.6h3v14.85a4.51,4.51,0,0,0,9,0V231.77h3A4.44,4.44,0,0,0,330.71,224.17Z" transform="translate(-267.5 -187.5)"/><path class="cls-12" d="M320,215.44a6.06,6.06,0,0,0-3.8,1.3l-7.82,7.43a4.43,4.43,0,0,0,3.32,7.6h3.13v14.85c0,2.46,2.58,4.46,5.17,4.46Z" transform="translate(-267.5 -187.5)"/></g></svg>