<svg id="Capa_1" data-name="Capa 1" xmlns="http://www.w3.org/2000/svg" xmlns:xlink="http://www.w3.org/1999/xlink" viewBox="0 0 87 86"><defs><style>.cls-1{fill:none;}.cls-2{clip-path:url(#clip-path);}.cls-3{fill-opacity:0.05;stroke:#0683f9;stroke-width:2px;}.cls-4,.cls-5{fill:#0683f9;}.cls-5{stroke:#fff;stroke-width:3px;}.cls-6{fill:#fff;}</style><clipPath id="clip-path" transform="translate(-276.51 -197)"><rect class="cls-1" x="276.51" y="197" width="86.99" height="86"/></clipPath></defs><g class="cls-2"><path class="cls-3" d="M362.51,240c0,23.18-19,42-42.5,42s-42.5-18.82-42.5-42,19-42,42.5-42S362.51,216.82,362.51,240Z" transform="translate(-276.51 -197)"/><path class="cls-4" d="M320,240a9,9,0,1,0-9.06-9A9,9,0,0,0,320,240Zm0,4.48c-6.05,0-18.12,3-18.12,9v4.48h36.24v-4.48C338.12,247.48,326.05,244.48,320,244.48Z" transform="translate(-276.51 -197)"/><circle class="cls-5" cx="73.5" cy="73.5" r="10"/><path class="cls-6" d="M350.33,272.65a1.82,1.82,0,1,0-1.82-1.82A1.82,1.82,0,0,0,350.33,272.65Z" transform="translate(-276.51 -197)"/><path class="cls-6" d="M348.63,265.14l-1,1.14h-1.81a1.14,1.14,0,0,0-1.14,1.13v6.83a1.15,1.15,0,0,0,1.14,1.14h9.11a1.14,1.14,0,0,0,1.13-1.14v-6.83a1.14,1.14,0,0,0-1.13-1.13h-1.81l-1-1.14Zm1.7,8.53a2.85,2.85,0,1,1,2.85-2.84A2.84,2.84,0,0,1,350.33,273.67Z" transform="translate(-276.51 -197)"/></g></svg>